<svg width="47" height="47" viewBox="0 0 47 47" fill="none" xmlns="http://www.w3.org/2000/svg">
<rect width="47" height="47" fill="white"/>
<rect x="7.56614" y="7.62939" width="31.2478" height="31.2478" rx="8" fill="#F9A31A"/>
<path d="M20.4265 21.2204L20.7771 20.9058L22.182 19.6453V19.6431L22.4313 19.4196C23.13 18.7932 23.3634 17.8232 23.0356 16.9642L20.4265 21.2204ZM20.4265 21.2204L20.5577 21.6729M20.4265 21.2204L20.5577 21.6729M20.5577 21.6729C20.7914 22.4789 21.1202 23.2543 21.5371 23.9826L21.5409 23.9893M20.5577 21.6729L21.5409 23.9893M21.5409 23.9893L21.5449 23.9959M21.5409 23.9893L21.5449 23.9959M21.5449 23.9959C21.98 24.7211 22.5034 25.3896 23.1032 25.9859L23.4225 26.3034M21.5449 23.9959L23.4225 26.3034M23.4225 26.3034L23.8528 26.1708M23.4225 26.3034L23.8528 26.1708M23.8528 26.1708L25.9949 25.5108L25.995 25.5107M23.8528 26.1708L25.995 25.5107M25.995 25.5107C26.9116 25.2281 27.9068 25.521 28.5077 26.2364L28.5078 26.2365M25.995 25.5107L28.5078 26.2365M28.5078 26.2365L29.7278 27.6885L29.7298 27.6909M28.5078 26.2365L29.7298 27.6909M29.7298 27.6909C30.0978 28.1251 30.2822 28.6855 30.2441 29.2533C30.206 29.8212 29.9484 30.3519 29.5257 30.733L29.5224 30.736M29.7298 27.6909L29.5224 30.736M29.5224 30.736C27.7205 32.3804 25.0695 32.8407 23.144 31.3288L29.5224 30.736ZM22.3656 15.2142L23.0354 16.9636L23.1433 31.3282C21.1999 29.7979 19.5556 27.9221 18.2929 25.7952L18.2918 25.7932C17.0284 23.6797 16.1828 21.3431 15.8011 18.9106C15.437 16.5546 17.149 14.5552 19.5128 13.8486L19.5133 13.8484C20.6957 13.494 21.9418 14.1068 22.3656 15.2141L22.3656 15.2142Z" stroke="white" stroke-width="1.5"/>
</svg>
