<svg width="47" height="47" viewBox="0 0 47 47" fill="none" xmlns="http://www.w3.org/2000/svg">
<rect width="47" height="47" fill="white"/>
<rect x="7.56614" y="7.62939" width="31.2478" height="31.2478" rx="8" fill="#F9A31A"/>
<path d="M17.5 33.1665C16.9958 33.1665 16.5644 32.9871 16.2057 32.6284C15.8463 32.2691 15.6667 31.8373 15.6667 31.3332V22.1665C15.6667 21.6623 15.8463 21.2306 16.2057 20.8713C16.5644 20.5125 16.9958 20.3332 17.5 20.3332H18.4167V18.4998C18.4167 17.2318 18.8637 16.1507 19.7577 15.2567C20.6512 14.3632 21.7319 13.9165 23 13.9165C24.2681 13.9165 25.3491 14.3632 26.2432 15.2567C27.1366 16.1507 27.5833 17.2318 27.5833 18.4998V20.3332H28.5C29.0042 20.3332 29.4359 20.5125 29.7952 20.8713C30.154 21.2306 30.3333 21.6623 30.3333 22.1665V31.3332C30.3333 31.8373 30.154 32.2691 29.7952 32.6284C29.4359 32.9871 29.0042 33.1665 28.5 33.1665H17.5ZM17.5 31.3332H28.5V22.1665H17.5V31.3332ZM23 28.5832C23.5042 28.5832 23.9359 28.4038 24.2952 28.0451C24.654 27.6858 24.8333 27.254 24.8333 26.7498C24.8333 26.2457 24.654 25.8139 24.2952 25.4546C23.9359 25.0959 23.5042 24.9165 23 24.9165C22.4958 24.9165 22.0644 25.0959 21.7057 25.4546C21.3463 25.8139 21.1667 26.2457 21.1667 26.7498C21.1667 27.254 21.3463 27.6858 21.7057 28.0451C22.0644 28.4038 22.4958 28.5832 23 28.5832ZM20.25 20.3332H25.75V18.4998C25.75 17.7359 25.4826 17.0866 24.9479 16.5519C24.4132 16.0172 23.7639 15.7498 23 15.7498C22.2361 15.7498 21.5868 16.0172 21.0521 16.5519C20.5174 17.0866 20.25 17.7359 20.25 18.4998V20.3332ZM17.5 31.3332V22.1665V31.3332Z" fill="white"/>
</svg>
