<svg width="47" height="47" viewBox="0 0 47 47" fill="none" xmlns="http://www.w3.org/2000/svg">
<rect width="47" height="47" fill="white"/>
<rect x="7.56614" y="7.62939" width="31.2478" height="31.2478" rx="8" fill="#F9A31A"/>
<path fill-rule="evenodd" clip-rule="evenodd" d="M21.3236 13.0197C19.4771 13.2218 17.7314 13.9622 16.3303 15.1374C16.0362 15.3842 15.3151 16.1068 15.087 16.3834C14.092 17.5901 13.2978 19.4985 13.1038 21.1486L13.0678 21.4556L12.6271 21.4754C12.2398 21.4929 12.1735 21.5112 12.0789 21.6271C11.9509 21.7839 11.9723 21.908 12.1899 22.2702C12.2747 22.4114 12.4887 22.7838 12.6654 23.0978C13.5828 24.7277 14.0656 25.5273 14.1872 25.6183C14.4158 25.7893 14.5819 25.6588 14.9383 25.0279C15.1071 24.7288 15.4766 24.0805 15.7594 23.5871C16.7903 21.788 16.7766 21.8199 16.6146 21.6002C16.5517 21.5149 16.454 21.4915 16.0938 21.4753L15.6505 21.4553L15.6506 21.23C15.6511 20.5814 16.0038 19.2956 16.3932 18.5222C17.7218 15.8841 20.5135 14.3399 23.4596 14.6137C24.441 14.7048 25.2245 14.9306 26.1356 15.3848C26.4403 15.5367 27.4207 16.1579 27.4901 16.2431C27.5052 16.2616 27.6738 16.4047 27.8649 16.5611C28.249 16.8756 28.4942 16.9288 28.7523 16.7536C28.9459 16.6222 28.9682 16.5757 28.9697 16.3019C28.971 16.0625 28.9589 16.0455 28.4074 15.5136C27.1915 14.3407 25.5542 13.4663 23.9769 13.1475C23.4385 13.0387 21.8494 12.9621 21.3236 13.0197ZM22.0085 17.2669L22.0082 18.0688L21.5837 18.1691C20.9899 18.3093 20.4783 18.589 20.1268 18.9656C19.8007 19.315 19.693 19.5104 19.5712 19.9744C19.4651 20.3785 19.4647 20.7598 19.5702 21.1612C19.8162 22.0979 20.5019 22.6167 22.1197 23.0903C23.3117 23.4391 23.5612 23.5444 23.8213 23.8083C24.1269 24.1185 24.1305 24.5879 23.8293 24.8649C23.5702 25.1033 23.2219 25.1802 22.5365 25.1506C22.0593 25.1299 21.8417 25.093 21.5367 24.981C20.985 24.7785 20.4833 24.4895 20.0844 24.1444L19.7408 23.8472L19.3703 24.5734C19.1665 24.9729 18.9985 25.3332 18.9969 25.3741C18.9905 25.5411 19.6931 26.0412 20.3873 26.3639C20.7802 26.5465 21.3049 26.7095 21.8581 26.8209L22.0088 26.8512V27.6929V28.5346H22.7214H23.4339V27.6756V26.8165L23.7765 26.7478C23.965 26.7099 24.3174 26.5844 24.5598 26.469C25.3725 26.0818 25.845 25.4608 25.969 24.6167C26.1204 23.5871 25.7191 22.7632 24.8036 22.2237C24.5791 22.0915 24.0288 21.8756 23.349 21.653C22.7476 21.4561 22.1355 21.2305 21.9888 21.1515C21.4666 20.8702 21.3092 20.3912 21.6225 20.0373C21.8279 19.8053 22.0941 19.727 22.6778 19.727C23.3081 19.727 23.8808 19.88 24.6086 20.2426C24.9381 20.4068 25.2118 20.5353 25.2168 20.5282C25.3061 20.4029 25.9005 19.0915 25.9005 19.0198C25.9005 18.8106 24.3011 18.1536 23.6258 18.0855L23.4613 18.0688L23.4462 17.2669L23.431 16.465H22.7199H22.0088L22.0085 17.2669ZM30.5108 19.3609C30.4279 19.4034 30.1799 19.7773 29.8352 20.3794C29.5356 20.9027 29.0704 21.7137 28.8014 22.1817C28.4808 22.7394 28.3123 23.0894 28.3123 23.198C28.3123 23.4468 28.4772 23.5328 28.9549 23.5328H29.3538V23.7746C29.3538 24.1262 29.1592 25.071 28.9762 25.6081C28.2856 27.6343 26.6206 29.3271 24.6655 29.9906C22.9777 30.5634 21.1975 30.55 19.6428 29.9526C18.8068 29.6315 17.955 29.1223 17.1939 28.4889C16.8403 28.1946 16.764 28.1542 16.5636 28.1557C16.2129 28.1584 16.0341 28.3508 16.0341 28.726C16.0341 28.8954 16.0844 28.9766 16.3767 29.2798C17.6119 30.5605 19.5029 31.5902 21.1398 31.8733C22.2655 32.068 23.701 32.0363 24.8193 31.792C26.9205 31.3332 28.9888 29.9457 30.2659 28.1383C31.0881 26.9748 31.7367 25.274 31.901 23.851L31.9365 23.5439L32.3771 23.5241C32.7597 23.5069 32.8314 23.4875 32.9216 23.377C32.9918 23.291 33.0144 23.2058 32.9912 23.1143C32.964 23.0065 32.0791 21.4257 31.074 19.6888C30.958 19.4884 30.7565 19.2905 30.6708 19.2929C30.6549 19.2933 30.5829 19.3239 30.5108 19.3609Z" fill="white"/>
</svg>
