<svg width="175" height="28" viewBox="0 0 175 28" fill="none" xmlns="http://www.w3.org/2000/svg">
<path d="M14 0L17.1432 9.67376H27.3148L19.0858 15.6525L22.229 25.3262L14 19.3475L5.77101 25.3262L8.9142 15.6525L0.685208 9.67376H10.8568L14 0Z" fill="#FFDE64"/>
<path d="M50.73 0L53.8732 9.67376H64.0448L55.8158 15.6525L58.959 25.3262L50.73 19.3475L42.501 25.3262L45.6442 15.6525L37.4152 9.67376H47.5868L50.73 0Z" fill="#FFDE64"/>
<path d="M87.46 0L90.6032 9.67376H100.775L92.5458 15.6525L95.689 25.3262L87.46 19.3475L79.231 25.3262L82.3742 15.6525L74.1452 9.67376H84.3168L87.46 0Z" fill="#FFDE64"/>
<path d="M124.19 0L127.333 9.67376H137.505L129.276 15.6525L132.419 25.3262L124.19 19.3475L115.961 25.3262L119.104 15.6525L110.875 9.67376H121.047L124.19 0Z" fill="#FFDE64"/>
<path d="M160.92 0L164.063 9.67376H174.235L166.006 15.6525L169.149 25.3262L160.92 19.3475L152.691 25.3262L155.834 15.6525L147.605 9.67376H157.777L160.92 0Z" fill="#FFDE64"/>
</svg>
