<svg width="48" height="47" viewBox="0 0 48 47" fill="none" xmlns="http://www.w3.org/2000/svg">
<rect x="0.671875" width="47" height="47" fill="white"/>
<rect x="8.23804" y="7.62939" width="31.2478" height="31.2478" rx="8" fill="#0E0D5D"/>
<path d="M31.9219 30.5001H22.4813L30.2062 22.7845L32.6719 20.3095C32.8119 20.1709 32.9231 20.0059 32.9989 19.8241C33.0748 19.6422 33.1138 19.4472 33.1138 19.2501C33.1138 19.0531 33.0748 18.858 32.9989 18.6762C32.9231 18.4944 32.8119 18.3294 32.6719 18.1908L28.4813 14.0001C28.1989 13.7219 27.8183 13.5659 27.4219 13.5659C27.0254 13.5659 26.6449 13.7219 26.3625 14.0001L15.1125 25.2501C14.9727 25.3889 14.8618 25.5539 14.7862 25.7357C14.7105 25.9176 14.6717 26.1126 14.6719 26.3095V30.5001C14.6719 30.898 14.8299 31.2795 15.1112 31.5608C15.3925 31.8421 15.7741 32.0001 16.1719 32.0001H31.9219C32.1208 32.0001 32.3116 31.9211 32.4522 31.7805C32.5929 31.6398 32.6719 31.4491 32.6719 31.2501C32.6719 31.0512 32.5929 30.8605 32.4522 30.7198C32.3116 30.5792 32.1208 30.5001 31.9219 30.5001ZM27.4219 15.0595L31.6125 19.2501L29.6719 21.1908L25.4813 17.0001L27.4219 15.0595ZM16.1719 26.3095L24.4219 18.0595L28.6125 22.2501L20.3625 30.5001H16.1719V26.3095Z" fill="white"/>
</svg>
